<?xml version="1.0" encoding="UTF-8"?>
<svg xmlns="http://www.w3.org/2000/svg" xmlns:xlink="http://www.w3.org/1999/xlink" width="100pt" height="100pt" viewBox="0 0 100 100" version="1.1">
<g id="surface21662454">
<path style=" stroke:none;fill-rule:nonzero;fill:rgb(94.509804%,73.72549%,9.803922%);fill-opacity:1;" d="M 77 12 C 76.449219 12 76 12.449219 76 13 C 76 13.550781 76.449219 14 77 14 C 77.550781 14 78 13.550781 78 13 C 78 12.449219 77.550781 12 77 12 Z M 77 12 "/>
<path style=" stroke:none;fill-rule:nonzero;fill:rgb(90.980392%,38.823529%,7.058824%);fill-opacity:1;" d="M 50 13 C 29.566406 13 13 29.566406 13 50 C 13 70.433594 29.566406 87 50 87 C 70.433594 87 87 70.433594 87 50 C 87 29.566406 70.433594 13 50 13 Z M 50 13 "/>
<path style=" stroke:none;fill-rule:nonzero;fill:rgb(94.509804%,73.72549%,9.803922%);fill-opacity:1;" d="M 83 11 C 80.789062 11 79 12.789062 79 15 C 79 17.210938 80.789062 19 83 19 C 85.210938 19 87 17.210938 87 15 C 87 12.789062 85.210938 11 83 11 Z M 83 11 "/>
<path style=" stroke:none;fill-rule:nonzero;fill:rgb(53.333333%,68.235294%,27.058824%);fill-opacity:1;" d="M 87 22 C 85.894531 22 85 22.894531 85 24 C 85 25.105469 85.894531 26 87 26 C 88.105469 26 89 25.105469 89 24 C 89 22.894531 88.105469 22 87 22 Z M 87 22 "/>
<path style=" stroke:none;fill-rule:nonzero;fill:rgb(98.431373%,80.392157%,34.901961%);fill-opacity:1;" d="M 81 74 C 79.894531 74 79 74.894531 79 76 C 79 77.105469 79.894531 78 81 78 C 82.105469 78 83 77.105469 83 76 C 83 74.894531 82.105469 74 81 74 Z M 15 59 C 12.789062 59 11 60.789062 11 63 C 11 65.210938 12.789062 67 15 67 C 17.210938 67 19 65.210938 19 63 C 19 60.789062 17.210938 59 15 59 Z M 15 59 "/>
<path style=" stroke:none;fill-rule:nonzero;fill:rgb(53.333333%,68.235294%,27.058824%);fill-opacity:1;" d="M 25 85 C 23.894531 85 23 85.894531 23 87 C 23 88.105469 23.894531 89 25 89 C 26.105469 89 27 88.105469 27 87 C 27 85.894531 26.105469 85 25 85 Z M 25 85 "/>
<path style=" stroke:none;fill-rule:nonzero;fill:rgb(100%,100%,100%);fill-opacity:1;" d="M 18.5 49 C 17.121094 49 16 50.121094 16 51.5 C 16 52.878906 17.121094 54 18.5 54 C 19.878906 54 21 52.878906 21 51.5 C 21 50.121094 19.878906 49 18.5 49 Z M 79.5 32 C 78.671875 32 78 32.671875 78 33.5 C 78 34.328125 78.671875 35 79.5 35 C 80.328125 35 81 34.328125 81 33.5 C 81 32.671875 80.328125 32 79.5 32 Z M 79.5 32 "/>
<path style=" stroke:none;fill-rule:nonzero;fill:rgb(94.901961%,94.117647%,90.588235%);fill-opacity:1;" d="M 29.027344 67.300781 C 26.640625 67.300781 24.699219 65.359375 24.699219 62.972656 L 24.699219 37.027344 C 24.699219 34.640625 26.640625 32.699219 29.027344 32.699219 L 70.972656 32.699219 C 73.359375 32.699219 75.300781 34.640625 75.300781 37.027344 L 75.300781 62.972656 C 75.300781 65.359375 73.359375 67.300781 70.972656 67.300781 Z M 29.027344 67.300781 "/>
<path style=" stroke:none;fill-rule:nonzero;fill:rgb(27.843137%,16.862745%,16.078431%);fill-opacity:1;" d="M 70.972656 33.398438 C 72.972656 33.398438 74.601562 35.027344 74.601562 37.027344 L 74.601562 62.972656 C 74.601562 64.972656 72.972656 66.601562 70.972656 66.601562 L 29.027344 66.601562 C 27.027344 66.601562 25.398438 64.972656 25.398438 62.972656 L 25.398438 37.027344 C 25.398438 35.027344 27.027344 33.398438 29.027344 33.398438 L 70.972656 33.398438 M 70.972656 32 L 29.027344 32 C 26.261719 32 24 34.261719 24 37.027344 L 24 62.972656 C 24 65.738281 26.261719 68 29.027344 68 L 70.972656 68 C 73.738281 68 76 65.738281 76 62.972656 L 76 37.027344 C 76 34.261719 73.738281 32 70.972656 32 Z M 70.972656 32 "/>
<path style=" stroke:none;fill-rule:nonzero;fill:rgb(80.784314%,80%,74.509804%);fill-opacity:1;" d="M 50.605469 54.246094 L 30.671875 66.554688 L 30.585938 42.113281 Z M 50.605469 54.246094 "/>
<path style=" stroke:none;fill-rule:nonzero;fill:rgb(91.764706%,31.764706%,40.392157%);fill-opacity:1;" d="M 70.886719 67 C 73.128906 67 74.960938 65.148438 74.960938 62.882812 L 74.960938 37.476562 C 74.960938 35.597656 73.691406 34.023438 71.984375 33.53125 L 49.96875 47.371094 L 27.96875 33.546875 C 26.285156 34.050781 25.039062 35.613281 25.039062 37.476562 L 25.039062 62.882812 C 25.039062 65.148438 26.871094 67 29.113281 67 L 30.886719 67 L 30.886719 43.257812 L 49.96875 54.40625 L 69.050781 43.257812 L 69.050781 67 Z M 70.886719 67 "/>
<path style=" stroke:none;fill-rule:nonzero;fill:rgb(27.843137%,16.862745%,16.078431%);fill-opacity:1;" d="M 49.988281 47.871094 C 49.894531 47.871094 49.800781 47.847656 49.722656 47.792969 L 39.199219 41.1875 C 38.964844 41.039062 38.894531 40.730469 39.039062 40.496094 C 39.1875 40.265625 39.496094 40.195312 39.730469 40.339844 L 49.988281 46.78125 L 54.503906 43.941406 C 54.738281 43.796875 55.046875 43.867188 55.195312 44.101562 C 55.339844 44.335938 55.269531 44.640625 55.035156 44.789062 L 50.253906 47.792969 C 50.171875 47.84375 50.078125 47.871094 49.988281 47.871094 Z M 57.738281 43.003906 C 57.570312 43.003906 57.410156 42.917969 57.316406 42.769531 C 57.167969 42.535156 57.238281 42.226562 57.472656 42.078125 L 61.578125 39.5 C 61.8125 39.351562 62.121094 39.425781 62.269531 39.65625 C 62.414062 39.890625 62.347656 40.199219 62.113281 40.347656 L 58.003906 42.925781 C 57.921875 42.976562 57.828125 43.003906 57.738281 43.003906 Z M 70.921875 67.5 L 69.085938 67.5 C 68.808594 67.5 68.585938 67.277344 68.585938 67 L 68.585938 61.808594 C 68.585938 61.53125 68.808594 61.308594 69.085938 61.308594 C 69.359375 61.308594 69.585938 61.53125 69.585938 61.808594 L 69.585938 66.5 L 70.921875 66.5 C 72.894531 66.5 74.5 64.878906 74.5 62.882812 L 74.5 37.476562 C 74.5 35.949219 73.519531 34.585938 72.09375 34.078125 L 65.320312 38.332031 C 65.085938 38.476562 64.777344 38.40625 64.632812 38.175781 C 64.484375 37.941406 64.554688 37.632812 64.789062 37.484375 L 71.757812 33.109375 C 71.878906 33.035156 72.027344 33.015625 72.160156 33.054688 C 74.128906 33.617188 75.5 35.4375 75.5 37.476562 L 75.5 62.886719 C 75.5 65.429688 73.445312 67.5 70.921875 67.5 Z M 70.921875 67.5 "/>
<path style=" stroke:none;fill-rule:nonzero;fill:rgb(27.843137%,16.862745%,16.078431%);fill-opacity:1;" d="M 69.085938 59.089844 C 68.808594 59.089844 68.585938 58.863281 68.585938 58.589844 L 68.585938 54.316406 C 68.585938 54.042969 68.808594 53.816406 69.085938 53.816406 C 69.359375 53.816406 69.585938 54.042969 69.585938 54.316406 L 69.585938 58.589844 C 69.585938 58.867188 69.359375 59.089844 69.085938 59.089844 Z M 30.890625 67.5 L 29.117188 67.5 C 26.59375 67.5 24.539062 65.429688 24.539062 62.882812 L 24.539062 37.476562 C 24.539062 35.460938 25.890625 33.648438 27.828125 33.066406 C 27.964844 33.023438 28.113281 33.042969 28.238281 33.121094 L 30.925781 34.808594 C 31.15625 34.957031 31.226562 35.265625 31.082031 35.496094 C 30.933594 35.730469 30.628906 35.804688 30.390625 35.65625 L 27.90625 34.09375 C 26.503906 34.613281 25.539062 35.972656 25.539062 37.476562 L 25.539062 62.882812 C 25.539062 64.878906 27.144531 66.5 29.117188 66.5 L 30.390625 66.5 L 30.390625 42.820312 C 30.390625 42.640625 30.488281 42.472656 30.644531 42.382812 C 30.804688 42.296875 30.996094 42.296875 31.148438 42.390625 L 49.988281 53.820312 L 68.824219 42.390625 C 68.980469 42.296875 69.175781 42.296875 69.328125 42.382812 C 69.488281 42.472656 69.585938 42.640625 69.585938 42.820312 L 69.585938 51.429688 C 69.585938 51.703125 69.359375 51.929688 69.085938 51.929688 C 68.808594 51.929688 68.585938 51.703125 68.585938 51.429688 L 68.585938 43.707031 L 50.246094 54.832031 C 50.089844 54.929688 49.886719 54.929688 49.726562 54.832031 L 31.390625 43.707031 L 31.390625 67 C 31.390625 67.277344 31.167969 67.5 30.890625 67.5 Z M 30.890625 67.5 "/>
<path style=" stroke:none;fill-rule:nonzero;fill:rgb(27.843137%,16.862745%,16.078431%);fill-opacity:1;" d="M 36.519531 39.414062 C 36.429688 39.414062 36.339844 39.390625 36.253906 39.335938 L 33.25 37.449219 C 33.015625 37.300781 32.945312 36.992188 33.09375 36.761719 C 33.238281 36.527344 33.546875 36.457031 33.78125 36.601562 L 36.785156 38.492188 C 37.019531 38.636719 37.089844 38.945312 36.945312 39.179688 C 36.851562 39.332031 36.6875 39.414062 36.519531 39.414062 Z M 36.519531 39.414062 "/>
</g>
</svg>
