<?xml version="1.0" encoding="UTF-8"?>
<svg xmlns="http://www.w3.org/2000/svg" xmlns:xlink="http://www.w3.org/1999/xlink" width="50pt" height="50pt" viewBox="0 0 50 50" version="1.1">
<g id="surface21660183">
<path style=" stroke:none;fill-rule:nonzero;fill:rgb(93.333333%,24.313725%,32.941176%);fill-opacity:1;" d="M 6.5 13.5 C 5.949219 13.5 5.5 13.949219 5.5 14.5 C 5.5 15.050781 5.949219 15.5 6.5 15.5 C 7.050781 15.5 7.5 15.050781 7.5 14.5 C 7.5 13.949219 7.050781 13.5 6.5 13.5 Z M 6.5 13.5 "/>
<path style=" stroke:none;fill-rule:nonzero;fill:rgb(94.509804%,73.72549%,9.803922%);fill-opacity:1;" d="M 38.5 6 C 38.222656 6 38 6.222656 38 6.5 C 38 6.777344 38.222656 7 38.5 7 C 38.777344 7 39 6.777344 39 6.5 C 39 6.222656 38.777344 6 38.5 6 Z M 38.5 6 "/>
<path style=" stroke:none;fill-rule:nonzero;fill:rgb(90.980392%,38.823529%,7.058824%);fill-opacity:1;" d="M 25 6.5 C 14.78125 6.5 6.5 14.78125 6.5 25 C 6.5 35.21875 14.78125 43.5 25 43.5 C 35.21875 43.5 43.5 35.21875 43.5 25 C 43.5 14.78125 35.21875 6.5 25 6.5 Z M 25 6.5 "/>
<path style=" stroke:none;fill-rule:nonzero;fill:rgb(94.509804%,73.72549%,9.803922%);fill-opacity:1;" d="M 41.5 5.5 C 40.394531 5.5 39.5 6.394531 39.5 7.5 C 39.5 8.605469 40.394531 9.5 41.5 9.5 C 42.605469 9.5 43.5 8.605469 43.5 7.5 C 43.5 6.394531 42.605469 5.5 41.5 5.5 Z M 41.5 5.5 "/>
<path style=" stroke:none;fill-rule:nonzero;fill:rgb(93.333333%,24.313725%,32.941176%);fill-opacity:1;" d="M 43.5 11 C 42.949219 11 42.5 11.449219 42.5 12 C 42.5 12.550781 42.949219 13 43.5 13 C 44.050781 13 44.5 12.550781 44.5 12 C 44.5 11.449219 44.050781 11 43.5 11 Z M 43.5 11 "/>
<path style=" stroke:none;fill-rule:nonzero;fill:rgb(98.431373%,80.392157%,34.901961%);fill-opacity:1;" d="M 40.5 37 C 39.949219 37 39.5 37.449219 39.5 38 C 39.5 38.550781 39.949219 39 40.5 39 C 41.050781 39 41.5 38.550781 41.5 38 C 41.5 37.449219 41.050781 37 40.5 37 Z M 7.5 29.5 C 6.394531 29.5 5.5 30.394531 5.5 31.5 C 5.5 32.605469 6.394531 33.5 7.5 33.5 C 8.605469 33.5 9.5 32.605469 9.5 31.5 C 9.5 30.394531 8.605469 29.5 7.5 29.5 Z M 7.5 29.5 "/>
<path style=" stroke:none;fill-rule:nonzero;fill:rgb(93.333333%,24.313725%,32.941176%);fill-opacity:1;" d="M 12.5 42.5 C 11.949219 42.5 11.5 42.949219 11.5 43.5 C 11.5 44.050781 11.949219 44.5 12.5 44.5 C 13.050781 44.5 13.5 44.050781 13.5 43.5 C 13.5 42.949219 13.050781 42.5 12.5 42.5 Z M 12.5 42.5 "/>
<path style=" stroke:none;fill-rule:nonzero;fill:rgb(100%,100%,100%);fill-opacity:1;" d="M 9.25 25.5 C 8.558594 25.5 8 26.058594 8 26.75 C 8 27.441406 8.558594 28 9.25 28 C 9.941406 28 10.5 27.441406 10.5 26.75 C 10.5 26.058594 9.941406 25.5 9.25 25.5 Z M 9.25 25.5 "/>
<path style=" stroke:none;fill-rule:nonzero;fill:rgb(94.509804%,73.72549%,9.803922%);fill-opacity:1;" d="M 10.5 33 C 10.222656 33 10 33.222656 10 33.5 C 10 33.777344 10.222656 34 10.5 34 C 10.777344 34 11 33.777344 11 33.5 C 11 33.222656 10.777344 33 10.5 33 Z M 10.5 33 "/>
<path style=" stroke:none;fill-rule:nonzero;fill:rgb(100%,100%,100%);fill-opacity:1;" d="M 40 16.5 C 39.722656 16.5 39.5 16.722656 39.5 17 C 39.5 17.277344 39.722656 17.5 40 17.5 C 40.277344 17.5 40.5 17.277344 40.5 17 C 40.5 16.722656 40.277344 16.5 40 16.5 Z M 40 16.5 "/>
<path style=" stroke:none;fill-rule:nonzero;fill:rgb(40.392157%,72.941176%,54.901961%);fill-opacity:1;" d="M 17.652344 35.648438 C 15.832031 35.648438 14.351562 34.167969 14.351562 32.347656 L 14.351562 18.652344 C 14.351562 16.832031 15.832031 15.351562 17.652344 15.351562 L 31.347656 15.351562 C 33.167969 15.351562 34.648438 16.832031 34.648438 18.652344 L 34.648438 32.347656 C 34.648438 34.167969 33.167969 35.648438 31.347656 35.648438 Z M 17.652344 35.648438 "/>
<path style=" stroke:none;fill-rule:nonzero;fill:rgb(27.843137%,16.862745%,16.078431%);fill-opacity:1;" d="M 31.347656 15.699219 C 32.976562 15.699219 34.300781 17.023438 34.300781 18.652344 L 34.300781 32.347656 C 34.300781 33.976562 32.976562 35.300781 31.347656 35.300781 L 17.652344 35.300781 C 16.023438 35.300781 14.699219 33.976562 14.699219 32.347656 L 14.699219 18.652344 C 14.699219 17.023438 16.023438 15.699219 17.652344 15.699219 L 31.347656 15.699219 M 31.347656 15 L 17.652344 15 C 15.644531 15 14 16.644531 14 18.652344 L 14 32.347656 C 14 34.355469 15.644531 36 17.652344 36 L 31.347656 36 C 33.355469 36 35 34.355469 35 32.347656 L 35 18.652344 C 35 16.644531 33.355469 15 31.347656 15 Z M 31.347656 15 "/>
<path style=" stroke:none;fill-rule:nonzero;fill:rgb(27.843137%,16.862745%,16.078431%);fill-opacity:1;" d="M 33.066406 24.328125 C 32.929688 24.328125 32.816406 24.214844 32.816406 24.078125 L 32.816406 22.308594 C 32.816406 22.171875 32.929688 22.058594 33.066406 22.058594 C 33.203125 22.058594 33.316406 22.171875 33.316406 22.308594 L 33.316406 24.078125 C 33.316406 24.214844 33.203125 24.328125 33.066406 24.328125 Z M 33.066406 24.328125 "/>
<path style=" stroke:none;fill-rule:nonzero;fill:rgb(27.843137%,16.862745%,16.078431%);fill-opacity:1;" d="M 33.066406 21.191406 C 32.929688 21.191406 32.816406 21.078125 32.816406 20.941406 L 32.816406 20.027344 C 32.816406 19.890625 32.929688 19.777344 33.066406 19.777344 C 33.203125 19.777344 33.316406 19.890625 33.316406 20.027344 L 33.316406 20.941406 C 33.316406 21.078125 33.203125 21.191406 33.066406 21.191406 Z M 33.066406 21.191406 "/>
<path style=" stroke:none;fill-rule:nonzero;fill:rgb(24.313725%,48.235294%,94.509804%);fill-opacity:1;" d="M 24.851562 27.386719 C 24.851562 27.386719 19.285156 32.730469 17.097656 35.238281 C 17.316406 35.292969 17.542969 35.320312 17.777344 35.320312 L 31.46875 35.320312 C 31.835938 35.320312 32.183594 35.25 32.507812 35.128906 C 30.257812 32.578125 24.851562 27.386719 24.851562 27.386719 Z M 24.851562 27.386719 "/>
<path style=" stroke:none;fill-rule:nonzero;fill:rgb(27.843137%,16.862745%,16.078431%);fill-opacity:1;" d="M 31.46875 35.445312 L 17.777344 35.445312 C 17.546875 35.445312 17.308594 35.417969 17.070312 35.363281 L 16.867188 35.316406 L 17.003906 35.15625 C 19.171875 32.675781 24.707031 27.347656 24.765625 27.296875 L 24.851562 27.210938 L 24.9375 27.296875 C 24.992188 27.347656 30.371094 32.519531 32.601562 35.046875 L 32.71875 35.183594 L 32.550781 35.246094 C 32.199219 35.378906 31.835938 35.445312 31.46875 35.445312 Z M 17.335938 35.160156 C 17.484375 35.183594 17.632812 35.195312 17.777344 35.195312 L 31.46875 35.195312 C 31.742188 35.195312 32.019531 35.15625 32.289062 35.074219 C 30.160156 32.691406 25.542969 28.226562 24.851562 27.558594 C 24.152344 28.234375 19.425781 32.800781 17.335938 35.160156 Z M 17.335938 35.160156 "/>
<path style=" stroke:none;fill-rule:nonzero;fill:rgb(100%,99.607843%,95.686275%);fill-opacity:1;" d="M 23.3125 27.042969 L 31.585938 35.316406 C 32.574219 35.277344 33.441406 34.757812 33.953125 33.976562 L 25.164062 25.191406 Z M 23.3125 27.042969 "/>
<path style=" stroke:none;fill-rule:nonzero;fill:rgb(27.843137%,16.862745%,16.078431%);fill-opacity:1;" d="M 31.535156 35.441406 L 23.132812 27.042969 L 25.164062 25.011719 L 34.113281 33.960938 L 34.054688 34.046875 C 33.507812 34.878906 32.585938 35.402344 31.589844 35.441406 Z M 23.488281 27.042969 L 31.632812 35.1875 C 32.496094 35.136719 33.289062 34.695312 33.789062 33.992188 L 25.164062 25.367188 Z M 23.488281 27.042969 "/>
<path style=" stroke:none;fill-rule:nonzero;fill:rgb(74.509804%,72.941176%,79.607843%);fill-opacity:1;" d="M 25.992188 26.246094 C 25.992188 26.246094 31.421875 31.898438 33.90625 34.046875 C 34.242188 33.566406 34.441406 32.980469 34.441406 32.347656 L 34.441406 18.65625 C 34.441406 18.449219 34.417969 18.246094 34.378906 18.046875 C 32.207031 19.777344 25.992188 26.246094 25.992188 26.246094 Z M 25.992188 26.246094 "/>
<path style=" stroke:none;fill-rule:nonzero;fill:rgb(27.843137%,16.862745%,16.078431%);fill-opacity:1;" d="M 33.925781 34.234375 L 33.820312 34.140625 C 31.363281 32.011719 25.957031 26.386719 25.902344 26.332031 L 25.820312 26.246094 L 25.902344 26.160156 C 25.964844 26.09375 32.144531 19.664062 34.300781 17.949219 L 34.457031 17.824219 L 34.5 18.023438 C 34.542969 18.234375 34.566406 18.449219 34.566406 18.65625 L 34.566406 32.347656 C 34.566406 32.984375 34.371094 33.597656 34.007812 34.121094 Z M 26.164062 26.246094 C 26.851562 26.953125 31.554688 31.820312 33.878906 33.859375 C 34.164062 33.40625 34.316406 32.886719 34.316406 32.347656 L 34.316406 18.65625 C 34.316406 18.53125 34.308594 18.40625 34.289062 18.28125 C 32.164062 20.039062 26.894531 25.488281 26.164062 26.246094 Z M 26.164062 26.246094 "/>
<path style=" stroke:none;fill-rule:nonzero;fill:rgb(99.215686%,90.588235%,31.764706%);fill-opacity:1;" d="M 17.632812 35.3125 L 34.433594 18.515625 C 34.386719 17.53125 33.859375 16.671875 33.082031 16.164062 L 15.285156 33.960938 C 15.789062 34.738281 16.648438 35.265625 17.632812 35.3125 Z M 17.632812 35.3125 "/>
<path style=" stroke:none;fill-rule:nonzero;fill:rgb(27.843137%,16.862745%,16.078431%);fill-opacity:1;" d="M 17.683594 35.441406 L 17.628906 35.4375 C 16.636719 35.390625 15.71875 34.863281 15.179688 34.027344 L 15.125 33.945312 L 15.195312 33.871094 L 33.0625 16.003906 L 33.148438 16.058594 C 33.984375 16.601562 34.511719 17.515625 34.558594 18.507812 L 34.5625 18.5625 Z M 15.445312 33.976562 C 15.9375 34.679688 16.726562 35.128906 17.585938 35.1875 L 34.304688 18.464844 C 34.246094 17.609375 33.800781 16.820312 33.097656 16.324219 Z M 15.445312 33.976562 "/>
<path style=" stroke:none;fill-rule:nonzero;fill:rgb(100%,100%,100%);fill-opacity:1;" d="M 19.914062 20.1875 L 19.914062 21.386719 L 21.621094 21.386719 C 21.398438 22.113281 20.789062 22.632812 19.914062 22.632812 C 18.867188 22.632812 18.019531 21.785156 18.019531 20.738281 C 18.019531 19.691406 18.867188 18.847656 19.914062 18.847656 C 20.382812 18.847656 20.8125 19.019531 21.140625 19.304688 L 22.023438 18.421875 C 21.46875 17.914062 20.726562 17.601562 19.914062 17.601562 C 18.179688 17.601562 16.773438 19.007812 16.773438 20.738281 C 16.773438 22.472656 18.179688 23.878906 19.914062 23.878906 C 22.65625 23.878906 23.128906 21.414062 22.871094 20.191406 Z M 19.914062 20.1875 "/>
<path style=" stroke:none;fill-rule:nonzero;fill:rgb(27.843137%,16.862745%,16.078431%);fill-opacity:1;" d="M 19.914062 24.003906 C 18.113281 24.003906 16.648438 22.539062 16.648438 20.742188 C 16.648438 18.941406 18.113281 17.476562 19.914062 17.476562 C 20.726562 17.476562 21.507812 17.78125 22.109375 18.328125 L 22.207031 18.417969 L 21.148438 19.472656 L 21.0625 19.398438 C 20.742188 19.121094 20.332031 18.972656 19.914062 18.972656 C 18.9375 18.972656 18.144531 19.765625 18.144531 20.742188 C 18.144531 21.714844 18.9375 22.507812 19.914062 22.507812 C 20.625 22.507812 21.183594 22.136719 21.445312 21.511719 L 19.789062 21.511719 L 19.789062 20.0625 L 22.972656 20.066406 L 22.992188 20.167969 C 23.160156 20.960938 23.027344 22.132812 22.351562 22.964844 C 21.792969 23.652344 20.972656 24.003906 19.914062 24.003906 Z M 19.914062 17.726562 C 18.25 17.726562 16.898438 19.078125 16.898438 20.738281 C 16.898438 22.402344 18.25 23.753906 19.914062 23.753906 C 20.890625 23.753906 21.648438 23.433594 22.15625 22.804688 C 22.753906 22.070312 22.890625 21.046875 22.765625 20.316406 L 20.039062 20.3125 L 20.039062 21.261719 L 21.792969 21.261719 L 21.742188 21.421875 C 21.480469 22.257812 20.796875 22.753906 19.914062 22.753906 C 18.800781 22.753906 17.894531 21.851562 17.894531 20.738281 C 17.894531 19.625 18.800781 18.71875 19.914062 18.71875 C 20.351562 18.71875 20.78125 18.867188 21.132812 19.132812 L 21.84375 18.425781 C 21.300781 17.976562 20.621094 17.726562 19.914062 17.726562 Z M 19.914062 17.726562 "/>
<path style=" stroke:none;fill-rule:nonzero;fill:rgb(91.764706%,28.627451%,53.72549%);fill-opacity:1;" d="M 31.210938 11.753906 C 28.0625 11.753906 25.507812 14.308594 25.507812 17.460938 C 25.507812 21.347656 29.878906 22.761719 30.832031 28.785156 C 30.894531 29.171875 30.898438 29.441406 31.210938 29.441406 C 31.527344 29.441406 31.53125 29.171875 31.59375 28.785156 C 32.542969 22.761719 36.917969 21.347656 36.917969 17.460938 C 36.917969 14.308594 34.363281 11.753906 31.210938 11.753906 Z M 31.210938 11.753906 "/>
<path style=" stroke:none;fill-rule:nonzero;fill:rgb(27.843137%,16.862745%,16.078431%);fill-opacity:1;" d="M 31.210938 29.691406 C 30.714844 29.691406 30.648438 29.253906 30.601562 28.9375 L 30.585938 28.824219 C 30.09375 25.71875 28.675781 23.867188 27.429688 22.230469 C 26.261719 20.703125 25.257812 19.386719 25.257812 17.460938 C 25.257812 14.175781 27.929688 11.503906 31.210938 11.503906 C 34.496094 11.503906 37.167969 14.175781 37.167969 17.460938 C 37.167969 19.386719 36.160156 20.703125 34.996094 22.230469 C 33.746094 23.867188 32.332031 25.71875 31.839844 28.824219 L 31.824219 28.9375 C 31.773438 29.253906 31.710938 29.691406 31.210938 29.691406 Z M 31.210938 12.003906 C 28.203125 12.003906 25.757812 14.453125 25.757812 17.460938 C 25.757812 19.21875 26.714844 20.472656 27.824219 21.925781 C 29.109375 23.609375 30.566406 25.519531 31.078125 28.746094 L 31.097656 28.863281 C 31.113281 28.984375 31.140625 29.152344 31.171875 29.1875 L 31.257812 29.183594 C 31.285156 29.152344 31.308594 28.984375 31.328125 28.863281 L 31.347656 28.746094 C 31.855469 25.515625 33.3125 23.609375 34.597656 21.925781 C 35.710938 20.472656 36.667969 19.21875 36.667969 17.460938 C 36.667969 14.453125 34.21875 12.003906 31.210938 12.003906 Z M 31.210938 12.003906 "/>
<path style=" stroke:none;fill-rule:nonzero;fill:rgb(100%,99.607843%,95.686275%);fill-opacity:1;" d="M 33.207031 17.460938 C 33.207031 18.5625 32.316406 19.457031 31.210938 19.457031 C 30.109375 19.457031 29.214844 18.5625 29.214844 17.460938 C 29.214844 16.355469 30.109375 15.464844 31.210938 15.464844 C 32.316406 15.464844 33.207031 16.355469 33.207031 17.460938 Z M 33.207031 17.460938 "/>
<path style=" stroke:none;fill-rule:nonzero;fill:rgb(27.843137%,16.862745%,16.078431%);fill-opacity:1;" d="M 31.210938 19.707031 C 29.972656 19.707031 28.964844 18.699219 28.964844 17.460938 C 28.964844 16.222656 29.972656 15.214844 31.210938 15.214844 C 32.449219 15.214844 33.457031 16.222656 33.457031 17.460938 C 33.457031 18.699219 32.449219 19.707031 31.210938 19.707031 Z M 31.210938 15.714844 C 30.25 15.714844 29.464844 16.496094 29.464844 17.460938 C 29.464844 18.421875 30.25 19.207031 31.210938 19.207031 C 32.175781 19.207031 32.957031 18.421875 32.957031 17.460938 C 32.957031 16.496094 32.175781 15.714844 31.210938 15.714844 Z M 31.210938 15.714844 "/>
<path style=" stroke:none;fill-rule:nonzero;fill:rgb(27.843137%,16.862745%,16.078431%);fill-opacity:1;" d="M 31.664062 24.109375 C 31.625 24.109375 31.585938 24.097656 31.546875 24.078125 C 31.425781 24.015625 31.378906 23.863281 31.441406 23.742188 C 32.15625 22.378906 33.503906 20.625 34.082031 19.875 C 34.210938 19.707031 34.300781 19.59375 34.328125 19.550781 C 34.746094 18.929688 34.96875 18.203125 34.96875 17.453125 C 34.96875 17.316406 35.082031 17.203125 35.21875 17.203125 C 35.359375 17.203125 35.46875 17.316406 35.46875 17.453125 C 35.46875 18.304688 35.21875 19.128906 34.742188 19.828125 C 34.710938 19.875 34.617188 20 34.476562 20.179688 C 33.910156 20.921875 32.578125 22.652344 31.882812 23.972656 C 31.839844 24.058594 31.753906 24.109375 31.664062 24.109375 Z M 31.664062 24.109375 "/>
<path style=" stroke:none;fill-rule:nonzero;fill:rgb(27.843137%,16.862745%,16.078431%);fill-opacity:1;" d="M 35.074219 16.632812 C 34.964844 16.632812 34.863281 16.558594 34.835938 16.449219 C 34.746094 16.136719 34.617188 15.832031 34.449219 15.546875 C 34.273438 15.246094 34.050781 14.972656 33.796875 14.730469 C 33.695312 14.636719 33.691406 14.476562 33.785156 14.375 C 33.882812 14.277344 34.039062 14.269531 34.140625 14.367188 C 34.429688 14.640625 34.679688 14.953125 34.878906 15.292969 C 35.070312 15.617188 35.214844 15.960938 35.316406 16.316406 C 35.351562 16.449219 35.273438 16.585938 35.140625 16.621094 C 35.117188 16.628906 35.097656 16.632812 35.074219 16.632812 Z M 35.074219 16.632812 "/>
<path style=" stroke:none;fill-rule:nonzero;fill:rgb(27.843137%,16.862745%,16.078431%);fill-opacity:1;" d="M 33.058594 14.148438 C 33.019531 14.148438 32.980469 14.140625 32.941406 14.121094 C 32.40625 13.84375 31.828125 13.703125 31.21875 13.703125 C 31.082031 13.703125 30.96875 13.589844 30.96875 13.453125 C 30.96875 13.316406 31.082031 13.203125 31.21875 13.203125 C 31.898438 13.203125 32.574219 13.367188 33.171875 13.675781 C 33.296875 13.738281 33.34375 13.890625 33.28125 14.011719 C 33.234375 14.097656 33.148438 14.148438 33.058594 14.148438 Z M 33.058594 14.148438 "/>
</g>
</svg>
